<svg id="flat" height="512" viewBox="0 0 512 512" width="512" xmlns="http://www.w3.org/2000/svg"><path d="m92 312a28 28 0 0 0 -28 28 44 44 0 0 0 44 44h296a44 44 0 0 0 44-44 28 28 0 0 0 -28-28h-20l-16-24h-256l-16 24z" fill="#b1712c"/><path d="m214.33843 264.48947 32.1955 40.2444a47.6587 47.6587 0 0 0 60.86052 11.60718h.00006a47.65867 47.65867 0 0 1 42.419-2.42592h.00007a72.74184 72.74184 0 0 0 66.07978-4.48469 16.69729 16.69729 0 0 0 8.10664-14.31783v-30.54616z" fill="#e35c49"/><path d="m64 384h384a0 0 0 0 1 0 0v40a64 64 0 0 1 -64 64h-256a64 64 0 0 1 -64-64v-40a0 0 0 0 1 0 0z" fill="#f5c99d"/><path d="m80 248.56645v43.159a36.80912 36.80912 0 0 0 17.871 31.56355h.00005a33.05246 33.05246 0 0 0 40.377-4.97063 33.05248 33.05248 0 0 1 32.45185-8.40912h.0001a74.19729 74.19729 0 0 0 67.33712-13.89161l58.05977-47.45123z" fill="#cc442f"/><path d="m128.68806 208.56645-41.73561 29.44932a35.31 35.31 0 0 0 -14.95245 28.85075v.0022a19.30139 19.30139 0 0 0 27.13906 17.63844l.96266-.42776a226.481 226.481 0 0 1 91.96676-19.513h1.02615a231.23588 231.23588 0 0 1 45.35281 4.49c8.409 1.68172 18.10822 3.62155 27.11923 5.42376a313.3982 313.3982 0 0 0 61.47476 6.08616h.96058a323.22505 323.22505 0 0 0 63.38245-6.27682l24.25249-4.8505a30.30666 30.30666 0 0 0 24.36305-29.71808v-7.15447l-12-24z" fill="#f6bb00"/><path d="m80 176.56645-4.79324 33.55271a19.66609 19.66609 0 0 0 19.46843 22.44729 39.50027 39.50027 0 0 0 17.66511-4.17017h.00005a101.68288 101.68288 0 0 1 81.17721-4.26071l2.22263.83348a39.50038 39.50038 0 0 0 37.56981-5.38505 39.5004 39.5004 0 0 1 32.58227-6.88852l66.75439 15.40486a63.38733 63.38733 0 0 0 37.79473-2.9104 63.38735 63.38735 0 0 1 43.58632-1.28085 16.92 16.92 0 0 0 22.10049-18.44455l-4.1282-28.89809z" fill="#93ad10"/><path d="m448 149.93645v26.63h-384v-28a123.96065 123.96065 0 0 1 124-124h35.54a149.54515 149.54515 0 0 1 93.41992 32.77 54.5663 54.5663 0 0 1 29.66992-8.77 101.37666 101.37666 0 0 1 101.37016 101.37z" fill="#f5c99d"/><path d="m316.96 57.33641a55.13433 55.13433 0 0 0 -9.04 7.31 54.36434 54.36434 0 0 1 -38.43994 15.92h-185.19006a123.89728 123.89728 0 0 1 103.71-56h35.54a149.54515 149.54515 0 0 1 93.41992 32.77z" fill="#deae7e"/></svg>